<svg xmlns="http://www.w3.org/2000/svg" viewBox="0 0 500 500"><defs><style>.cls-1{fill:#f5f5f5;}.cls-2{fill:#e0e0e0;}.cls-3{fill:#37474f;}.cls-4{fill:#263238;}.cls-5{fill:#455a64;}.cls-6,.cls-7,.cls-9{fill:#937042;}.cls-7,.cls-8{opacity:0.15;}.cls-9{opacity:0.98;}.cls-10{fill:#fec56d;}</style></defs><g id="Floor"><path id="Floor-2" data-name="Floor" class="cls-1" d="M92.31,415.65c-90.41-52.21-90.41-136.84,0-189s237-52.2,327.43,0,90.42,136.84,0,189S182.73,467.85,92.31,415.65Z"/></g><g id="Shadow"><ellipse id="Shadow-2" data-name="Shadow" class="cls-2" cx="190.3" cy="305.06" rx="161.23" ry="115.28"/></g><g id="Check_mark" data-name="Check mark"><g id="Check_Mark-2" data-name="Check Mark"><g id="Circle"><path class="cls-3" d="M349.47,101.07h0l-.2-.1h0L299.58,72.36l-.05,0-.29-.15v0C276,60.49,245.08,64,211.78,85.53,144.88,128.79,93.91,228.35,97.93,307.92c2,39.65,17.29,66.84,40.4,78.8h0l.21.1,0,0,49.68,28.59h0l.25.13h0c23.21,11.74,54.19,8.24,87.52-13.31C342.91,359,393.89,259.44,389.87,179.88,387.87,140.22,372.58,113,349.47,101.07Z"/><path class="cls-4" d="M186.54,414.54l-48-27.7h0l-.22-.13c-23.1-12-38.38-39.18-40.38-78.78-1.79-35.48,7.37-74.92,24-111.55l.34-.8L171.58,225C155,261.6,145.82,301,147.61,336.52,149.57,375.32,164.25,402.19,186.54,414.54Z"/><path class="cls-5" d="M276,402.26C342.91,359,393.89,259.44,389.87,179.88s-61.5-109-128.39-65.74S143.61,257,147.62,336.52,209.12,445.52,276,402.26Z"/></g><path id="Shadow-3" data-name="Shadow" class="cls-3" d="M332.67,94.9,248.83,267.59,230.78,248a29.66,29.66,0,0,0-43.58,40.25l47.54,51.49a29.49,29.49,0,0,0,20.19,9.49c.54,0,1.09.05,1.64.05a29.55,29.55,0,0,0,26.64-16.7l96.15-198C369.55,112.6,353.12,99,332.67,94.9Z"/><path class="cls-6" d="M400.76,38c-.53-.3-1.06-.59-1.62-.86a25.79,25.79,0,0,0-34.42,11.91L258,268.82,252,262.25a25.37,25.37,0,0,0-6-4.83c-3.19-1.82-16.71-9.65-18.9-10.92a25.76,25.76,0,0,0-31.81,39.78l47.54,51.49a25.15,25.15,0,0,0,6.13,4.88c3.11,1.77,16.58,9.58,18.79,10.86a25.74,25.74,0,0,0,36.08-11L430,82.51A25.8,25.8,0,0,0,419.69,49Z"/><path class="cls-7" d="M400.76,38c-.53-.3-1.06-.59-1.62-.86a25.79,25.79,0,0,0-34.42,11.91L258,268.82,252,262.25a25.37,25.37,0,0,0-6-4.83c-3.19-1.82-16.71-9.65-18.9-10.92a25.76,25.76,0,0,0-31.81,39.78l47.54,51.49a25.15,25.15,0,0,0,6.13,4.88c3.11,1.77,16.58,9.58,18.79,10.86a25.74,25.74,0,0,0,36.08-11L430,82.51A25.8,25.8,0,0,0,419.69,49Z"/><path class="cls-8" d="M267.67,353.51c-2.19-1.27-15.67-9.09-18.78-10.86a25.64,25.64,0,0,1-6.14-4.88l-47.54-51.49a25.7,25.7,0,0,1-4.91-7.83l18.9,10.91a25.34,25.34,0,0,0,4.94,7.84l47.54,51.49A25.84,25.84,0,0,0,267.67,353.51Z"/><path class="cls-9" d="M389.61,52.07a25.49,25.49,0,0,0-6,7.93L273.91,286,258,268.82,364.73,49.08a25.11,25.11,0,0,1,6-7.93Z"/><path id="Check" class="cls-10" d="M418.07,48.09A25.8,25.8,0,0,0,383.64,60L273.91,286,252,262.25a25.75,25.75,0,0,0-37.83,34.95l47.54,51.5a25.74,25.74,0,0,0,42.08-6.22L430,82.51A25.79,25.79,0,0,0,418.07,48.09Z"/></g></g></svg>