<svg id="Layer_1" data-name="Layer 1" xmlns="http://www.w3.org/2000/svg" viewBox="0 0 3000 2000"><defs><style>.cls-1{fill:#ebf3fa;}.cls-2{fill:#a53d38;}.cls-3{fill:#35488b;}.cls-4{fill:#f1a34f;}.cls-5{fill:#fff;}.cls-6{fill:#699ff0;}.cls-7{fill:#466aa5;}.cls-8{fill:#e49963;}.cls-9{fill:#c65447;}.cls-10{fill:#ffb27d;}.cls-11{fill:#365da4;}.cls-12{fill:#e8945b;}.cls-13{fill:#699dee;}.cls-14{fill:#3b76ca;}.cls-15{fill:#b64c41;}.cls-16{fill:#82b378;}.cls-17{fill:#283250;}.cls-18{fill:#a8d29f;}.cls-19{fill:#ffb973;}.cls-20{fill:#d86713;}</style></defs><path class="cls-1" d="M2881.82,1292.68c-95.69-186.47-596.26,129.34-683.93-342.46s-430.57-850-943.14-333.52C1078.66,802,627.87,1106.41,320.89,936.23S-5.45,1599.7,387.26,1749.82l2398.87-3.52S2977.5,1479.15,2881.82,1292.68Z"/><rect class="cls-2" x="730.93" y="1581.35" width="33.46" height="153.44" transform="translate(1495.32 3316.14) rotate(180)"/><rect class="cls-3" x="563.88" y="1534.46" width="33.46" height="200.33" transform="translate(1161.22 3269.25) rotate(180)"/><rect class="cls-3" x="697.47" y="1581.35" width="33.46" height="153.44" transform="translate(1428.41 3316.14) rotate(180)"/><rect class="cls-4" x="597.34" y="1560.3" width="33.46" height="174.49" transform="translate(1228.14 3295.09) rotate(180)"/><rect class="cls-4" x="831.23" y="1548.23" width="33.46" height="186.56" transform="translate(1695.91 3283.02) rotate(180)"/><rect class="cls-4" x="764.34" y="1548.23" width="33.46" height="186.56" transform="translate(1562.13 3283.02) rotate(180)"/><rect class="cls-2" x="797.77" y="1601.99" width="33.46" height="132.8" transform="translate(1628.99 3336.78) rotate(180)"/><rect class="cls-2" x="864.67" y="1560.19" width="33.46" height="174.49" transform="translate(1762.79 3294.86) rotate(180)"/><rect class="cls-2" x="530.43" y="1581.35" width="33.46" height="153.44" transform="translate(1094.31 3316.15) rotate(180)"/><rect class="cls-4" x="664.25" y="1616.38" width="33.46" height="118.41" transform="translate(1361.97 3351.17) rotate(180)"/><rect class="cls-2" x="630.8" y="1536.78" width="33.46" height="198.01" transform="translate(1295.05 3271.57) rotate(180)"/><polygon class="cls-4" points="450.14 1724.17 482 1734.67 533.96 1568.54 502.1 1558.04 450.14 1724.17"/><rect class="cls-2" x="567.79" y="1700.76" width="25.3" height="29.24" transform="translate(1160.88 3430.77) rotate(180)"/><rect class="cls-4" x="635.45" y="1547.33" width="25.53" height="6.96" transform="translate(1296.43 3101.62) rotate(180)"/><rect class="cls-4" x="635.45" y="1559.05" width="25.53" height="6.96" transform="translate(1296.43 3125.06) rotate(180)"/><rect class="cls-5" x="600.17" y="1577.03" width="27.97" height="3.48" transform="translate(1228.3 3157.55) rotate(180)"/><path class="cls-3" d="M881.47,1598.89h0a12.36,12.36,0,0,0,12.36-12.36v-19H869.11v19A12.36,12.36,0,0,0,881.47,1598.89Z"/><rect class="cls-3" x="767.45" y="1553.63" width="28.32" height="3.83" transform="translate(1563.22 3111.09) rotate(180)"/><rect class="cls-3" x="800.57" y="1725.46" width="28.16" height="6.03" transform="translate(1629.29 3456.96) rotate(180)"/><rect class="cls-5" x="800.57" y="1717.42" width="28.16" height="6.03" transform="translate(1629.29 3440.87) rotate(180)"/><path class="cls-5" d="M814.65,1712h0a12.18,12.18,0,0,0,12.18-12.18h0a12.18,12.18,0,0,0-12.18-12.18h0a12.19,12.19,0,0,0-12.19,12.18h0A12.19,12.19,0,0,0,814.65,1712Z"/><rect class="cls-2" x="835.64" y="1606.35" width="24.6" height="58.72" transform="translate(1695.87 3271.42) rotate(180)"/><rect class="cls-5" x="734.8" y="1593.78" width="26.3" height="6.03" transform="translate(1495.91 3193.6) rotate(180)"/><rect class="cls-5" x="734.51" y="1624.27" width="26.3" height="6.03" transform="translate(1495.32 3254.57) rotate(180)"/><path class="cls-5" d="M538.52,1606.47h18.42a4.56,4.56,0,0,0,4.56-4.56h0a4.57,4.57,0,0,0-4.56-4.57H538.52a4.57,4.57,0,0,0-4.56,4.57h0A4.56,4.56,0,0,0,538.52,1606.47Z"/><rect class="cls-2" x="2206.91" y="1335.23" width="33.46" height="153.44" transform="translate(4447.28 2823.9) rotate(180)"/><rect class="cls-3" x="2039.77" y="1288.48" width="33.46" height="200.33" transform="translate(4112.99 2777.28) rotate(180)"/><rect class="cls-3" x="2173.45" y="1335.31" width="33.46" height="153.44" transform="translate(4380.36 2824.06) rotate(180)"/><rect class="cls-4" x="2073.22" y="1314.18" width="33.46" height="174.49" transform="translate(4179.9 2802.86) rotate(180)"/><rect class="cls-4" x="2307.17" y="1302.18" width="33.46" height="186.56" transform="translate(4647.79 2790.92) rotate(180)"/><rect class="cls-4" x="2240.25" y="1302.12" width="33.46" height="186.56" transform="translate(4513.96 2790.79) rotate(180)"/><rect class="cls-2" x="2273.71" y="1355.87" width="33.46" height="132.8" transform="translate(4580.88 2844.54) rotate(180)"/><rect class="cls-2" x="2340.63" y="1314.18" width="33.46" height="174.49" transform="translate(4714.71 2802.86) rotate(180)"/><rect class="cls-2" x="2006.31" y="1335.36" width="33.46" height="153.44" transform="translate(4046.07 2824.17) rotate(180)"/><rect class="cls-4" x="2139.99" y="1370.34" width="33.46" height="118.41" transform="translate(4313.45 2859.09) rotate(180)"/><rect class="cls-2" x="2106.54" y="1290.67" width="33.46" height="198.01" transform="translate(4246.53 2779.34) rotate(180)"/><polygon class="cls-4" points="1926.12 1477.89 1957.98 1488.39 2009.93 1322.26 1978.08 1311.76 1926.12 1477.89"/><rect class="cls-2" x="2043.77" y="1454.48" width="25.3" height="29.24" transform="translate(4112.84 2938.2) rotate(180)"/><rect class="cls-4" x="2111.42" y="1301.04" width="25.53" height="6.96" transform="translate(4248.38 2609.05) rotate(180)"/><rect class="cls-4" x="2111.42" y="1312.76" width="25.53" height="6.96" transform="translate(4248.38 2632.49) rotate(180)"/><rect class="cls-5" x="2076.15" y="1330.75" width="27.97" height="3.48" transform="translate(4180.26 2664.99) rotate(180)"/><path class="cls-3" d="M2357.45,1352.61h0a12.36,12.36,0,0,0,12.36-12.36v-19h-24.72v19A12.36,12.36,0,0,0,2357.45,1352.61Z"/><rect class="cls-3" x="2243.43" y="1307.35" width="28.32" height="3.83" transform="translate(4515.18 2618.53) rotate(180)"/><rect class="cls-3" x="2276.54" y="1479.18" width="28.16" height="6.03" transform="translate(4581.25 2964.39) rotate(180)"/><rect class="cls-5" x="2276.54" y="1471.13" width="28.16" height="6.03" transform="translate(4581.25 2948.3) rotate(180)"/><path class="cls-5" d="M2290.62,1465.72h0a12.19,12.19,0,0,0,12.19-12.19h0a12.18,12.18,0,0,0-12.19-12.18h0a12.18,12.18,0,0,0-12.18,12.18h0A12.18,12.18,0,0,0,2290.62,1465.72Z"/><rect class="cls-2" x="2311.61" y="1360.07" width="24.6" height="58.72" transform="translate(4647.83 2778.85) rotate(180)"/><rect class="cls-5" x="2210.78" y="1347.5" width="26.3" height="6.03" transform="translate(4447.87 2701.04) rotate(180)"/><rect class="cls-5" x="2210.49" y="1377.98" width="26.3" height="6.03" transform="translate(4447.28 2762) rotate(180)"/><path class="cls-5" d="M2014.5,1360.19h18.42a4.56,4.56,0,0,0,4.56-4.57h0a4.56,4.56,0,0,0-4.56-4.56H2014.5a4.57,4.57,0,0,0-4.57,4.56h0A4.57,4.57,0,0,0,2014.5,1360.19Z"/><rect class="cls-2" x="578.18" y="1101.93" width="32.03" height="141.84"/><rect class="cls-4" x="834.22" y="1101.97" width="32.03" height="141.84"/><rect class="cls-3" x="738.12" y="1096.87" width="32.03" height="146.9"/><rect class="cls-4" x="610.21" y="1096.87" width="32.03" height="146.9"/><rect class="cls-2" x="706.09" y="1116.66" width="32.03" height="127.11"/><rect class="cls-3" x="482.17" y="1051.81" width="32.03" height="191.96"/><rect class="cls-3" x="802.18" y="1051.81" width="32.03" height="191.96"/><rect class="cls-3" x="546.22" y="1065.16" width="32.03" height="178.6"/><rect class="cls-2" x="514.19" y="1112.26" width="32.03" height="131.51"/><rect class="cls-4" x="450.14" y="1076.72" width="32.03" height="167.05"/><rect class="cls-3" x="866.09" y="1076.46" width="32.03" height="167.05"/><rect class="cls-4" x="770.15" y="1071.07" width="32.03" height="172.69"/><rect class="cls-3" x="642.03" y="1065.16" width="32.03" height="178.6"/><rect class="cls-4" x="674.07" y="1054.2" width="32.03" height="189.57"/><rect class="cls-4" x="742.17" y="1105.15" width="24.22" height="28"/><rect class="cls-4" x="677.18" y="1064.15" width="24.44" height="6.67"/><rect class="cls-4" x="677.18" y="1075.37" width="24.44" height="6.67"/><path class="cls-3" d="M466.08,1113.52h0a11.83,11.83,0,0,1-11.83-11.83v-18.17h23.67v18.17A11.84,11.84,0,0,1,466.08,1113.52Z"/><rect class="cls-3" x="548.13" y="1070.19" width="27.11" height="3.67"/><rect class="cls-3" x="516.58" y="1234.69" width="26.96" height="5.78"/><rect class="cls-3" x="516.58" y="1226.99" width="26.96" height="5.78"/><path class="cls-3" d="M530.06,1221.81h0a11.68,11.68,0,0,1-11.67-11.67h0a11.68,11.68,0,0,1,11.67-11.67h0a11.68,11.68,0,0,1,11.67,11.67h0A11.68,11.68,0,0,1,530.06,1221.81Z"/><rect class="cls-2" x="486.41" y="1120.66" width="23.55" height="56.22"/><rect class="cls-5" x="581.32" y="1108.63" width="25.18" height="5.78"/><rect class="cls-5" x="581.6" y="1137.81" width="25.18" height="5.78"/><path class="cls-5" d="M794.42,1087H776.78a4.37,4.37,0,0,1-4.37-4.37h0a4.37,4.37,0,0,1,4.37-4.37h17.64a4.37,4.37,0,0,1,4.37,4.37h0A4.37,4.37,0,0,1,794.42,1087Z"/><rect class="cls-5" x="645.72" y="1218.7" width="24.66" height="21.77"/><rect class="cls-2" x="708.85" y="1232.77" width="26.12" height="4.81"/><rect class="cls-2" x="870.78" y="1148.73" width="23.04" height="7.51"/><rect class="cls-2" x="870.78" y="1160.95" width="23.04" height="7.51"/><rect class="cls-2" x="864.9" y="1316.03" width="33.22" height="173.24" transform="translate(1763.03 2805.31) rotate(180)"/><rect class="cls-2" x="649.44" y="1316.03" width="33.22" height="173.24" transform="translate(1332.1 2805.31) rotate(180)"/><rect class="cls-3" x="831.69" y="1292.68" width="33.22" height="196.59" transform="translate(1696.59 2781.96) rotate(180)"/><rect class="cls-4" x="798.47" y="1336.93" width="33.22" height="152.35" transform="translate(1630.15 2826.2) rotate(180)"/><rect class="cls-2" x="483.36" y="1336.93" width="33.22" height="152.35" transform="translate(999.93 2826.2) rotate(180)"/><rect class="cls-3" x="450.14" y="1316.03" width="33.22" height="173.24" transform="translate(933.5 2805.31) rotate(180)"/><rect class="cls-4" x="616.22" y="1304.05" width="33.22" height="185.23" transform="translate(1265.67 2793.32) rotate(180)"/><rect class="cls-4" x="516.57" y="1304.05" width="33.22" height="185.23" transform="translate(1066.37 2793.32) rotate(180)"/><rect class="cls-2" x="583.01" y="1292.68" width="33.22" height="196.59" transform="translate(1199.23 2781.96) rotate(180)"/><rect class="cls-3" x="549.79" y="1336.93" width="33.22" height="152.35" transform="translate(1132.79 2826.2) rotate(180)"/><rect class="cls-2" x="765.25" y="1316.03" width="33.22" height="173.24" transform="translate(1563.72 2805.31) rotate(180)"/><path class="cls-4" d="M682.66,1478.85l31.62,10.43,51-163a2.12,2.12,0,0,0-1.36-2.64l-27.61-9.11a2.11,2.11,0,0,0-2.68,1.38Z"/><rect class="cls-4" x="867.61" y="1329.86" width="27.81" height="7.68" transform="translate(1763.03 2667.4) rotate(180)"/><rect class="cls-4" x="867.61" y="1340.15" width="27.81" height="3.23" transform="translate(1763.03 2683.53) rotate(180)"/><rect class="cls-4" x="767.95" y="1469.97" width="27.81" height="7.68" transform="translate(1563.72 2947.62) rotate(180)"/><rect class="cls-4" x="767.95" y="1480.26" width="27.81" height="3.23" transform="translate(1563.72 2963.75) rotate(180)"/><rect class="cls-4" x="653.85" y="1323.41" width="23.97" height="98.63" transform="translate(1331.67 2745.44) rotate(180)"/><path class="cls-4" d="M497.92,1363.35h3.38a7.22,7.22,0,0,0,7.22-7.22h0a7.22,7.22,0,0,0-7.22-7.22h-3.38a7.22,7.22,0,0,0-7.22,7.22h0A7.22,7.22,0,0,0,497.92,1363.35Z"/><rect class="cls-4" x="586.26" y="1304.05" width="26.88" height="3.23" transform="translate(1199.4 2611.32) rotate(180)"/><rect class="cls-4" x="586.26" y="1310.04" width="26.88" height="3.23" transform="translate(1199.4 2623.31) rotate(180)"/><rect class="cls-4" x="586.26" y="1316.03" width="26.88" height="3.23" transform="translate(1199.4 2635.29) rotate(180)"/><rect class="cls-5" x="800.5" y="1347.83" width="29.15" height="30.88" transform="translate(1630.15 2726.55) rotate(180)"/><rect class="cls-5" x="800.5" y="1382" width="29.15" height="4.15" transform="translate(1630.15 2768.14) rotate(180)"/><rect class="cls-5" x="453.37" y="1480.11" width="27.42" height="4.84" transform="translate(934.16 2965.05) rotate(180)"/><rect class="cls-5" x="453.37" y="1472.04" width="27.42" height="4.84" transform="translate(934.16 2948.92) rotate(180)"/><rect class="cls-5" x="453.37" y="1441.85" width="27.42" height="26.27" transform="translate(934.16 2909.98) rotate(180)"/><path class="cls-2" d="M565.82,1427.86H567a13.13,13.13,0,0,0,13.13-13.14h0A13.13,13.13,0,0,0,567,1401.59h-1.16a13.13,13.13,0,0,0-13.13,13.13h0A13.13,13.13,0,0,0,565.82,1427.86Z"/><rect class="cls-4" x="834.98" y="1469.97" width="26.96" height="14.98" transform="translate(1696.92 2954.91) rotate(180)"/><rect class="cls-2" x="729.97" y="1334.99" width="28.57" height="5.76" transform="matrix(-0.95, -0.3, 0.3, -0.95, 1051.1, 2837.76)"/><rect class="cls-2" x="618.36" y="1323.41" width="29.27" height="4.38" transform="translate(1265.99 2651.19) rotate(180)"/><rect class="cls-2" x="618.2" y="1317.41" width="29.27" height="4.38" transform="translate(1265.67 2639.21) rotate(180)"/><path class="cls-2" d="M633,1356h0a14.63,14.63,0,0,0,14.63-14.63v-12H618.36v12A14.64,14.64,0,0,0,633,1356Z"/><path class="cls-6" d="M910.11,768v979.27H438.16V768Zm-460,966.84h448V779.46h-448Z"/><rect class="cls-7" x="366.26" y="767.95" width="71.9" height="979.02" transform="translate(804.42 2514.92) rotate(180)"/><rect class="cls-6" x="443.69" y="998.25" width="460.88" height="26.73" transform="translate(1348.27 2023.22) rotate(180)"/><rect class="cls-6" x="443.69" y="1243.76" width="460.88" height="26.73" transform="translate(1348.27 2514.25) rotate(180)"/><rect class="cls-6" x="443.69" y="1489.28" width="460.88" height="26.73" transform="translate(1348.27 3005.28) rotate(180)"/><rect class="cls-3" x="582.92" y="846" width="33.22" height="152.35"/><rect class="cls-3" x="748.8" y="846" width="33.22" height="152.35"/><rect class="cls-2" x="616.14" y="846" width="33.22" height="152.35"/><rect class="cls-3" x="715.58" y="825.1" width="33.22" height="173.24"/><rect class="cls-4" x="483.36" y="813.2" width="33.22" height="185.23"/><rect class="cls-4" x="549.78" y="813.2" width="33.22" height="185.23"/><rect class="cls-2" x="516.56" y="801.79" width="33.22" height="196.59"/><rect class="cls-2" x="450.14" y="825.1" width="33.22" height="173.24"/><rect class="cls-2" x="782.02" y="846" width="33.22" height="152.35"/><rect class="cls-4" x="649.15" y="813.12" width="33.22" height="185.23"/><rect class="cls-2" x="682.37" y="801.75" width="33.22" height="196.59"/><polygon class="cls-4" points="894.93 987.92 863.3 998.35 811.71 833.4 843.34 822.97 894.93 987.92"/><rect class="cls-4" x="753" y="854.85" width="25.12" height="29.04"/><rect class="cls-4" x="685.6" y="812.34" width="25.35" height="6.91"/><rect class="cls-4" x="685.6" y="823.97" width="25.35" height="6.91"/><rect class="cls-5" x="718.2" y="841.83" width="27.77" height="3.46"/><path class="cls-3" d="M454.4,832.42h24.54a0,0,0,0,1,0,0v18.84a12.27,12.27,0,0,1-12.27,12.27h0a12.27,12.27,0,0,1-12.27-12.27V832.42A0,0,0,0,1,454.4,832.42Z"/><rect class="cls-3" x="551.77" y="818.6" width="28.11" height="3.8"/><rect class="cls-3" x="519.04" y="989.2" width="27.96" height="5.99"/><rect class="cls-3" x="519.04" y="981.21" width="27.96" height="5.99"/><path class="cls-3" d="M533,975.84h0a12.09,12.09,0,0,1-12.09-12.1h0A12.09,12.09,0,0,1,533,951.64h0a12.1,12.1,0,0,1,12.1,12.1h0A12.1,12.1,0,0,1,533,975.84Z"/><rect class="cls-2" x="487.76" y="870.94" width="24.43" height="58.3"/><rect class="cls-5" x="586.18" y="858.46" width="26.12" height="5.99"/><rect class="cls-5" x="586.47" y="888.73" width="26.12" height="5.99"/><path class="cls-5" d="M807.18,871.06H788.89a4.53,4.53,0,0,1-4.53-4.53h0a4.53,4.53,0,0,1,4.53-4.53h18.29a4.53,4.53,0,0,1,4.53,4.53h0A4.53,4.53,0,0,1,807.18,871.06Z"/><rect class="cls-2" x="2682.7" y="1372.59" width="26.46" height="138.01" transform="translate(5391.86 2883.19) rotate(180)"/><rect class="cls-2" x="2511.06" y="1372.59" width="26.46" height="138.01" transform="translate(5048.58 2883.19) rotate(180)"/><rect class="cls-4" x="2656.24" y="1353.99" width="26.46" height="156.61" transform="translate(5338.94 2864.59) rotate(180)"/><rect class="cls-3" x="2629.77" y="1389.23" width="26.46" height="121.37" transform="translate(5286.01 2899.84) rotate(180)"/><rect class="cls-4" x="2484.59" y="1363.04" width="26.46" height="147.56" transform="translate(4995.65 2873.65) rotate(180)"/><rect class="cls-2" x="2457.26" y="1353.99" width="27.33" height="156.61" transform="translate(4941.86 2864.59) rotate(180)"/><rect class="cls-2" x="2603.31" y="1372.59" width="26.46" height="138.01" transform="translate(5233.09 2883.19) rotate(180)"/><path class="cls-4" d="M2537.61,1502.29l25.2,8.31,40.43-129.29a2.25,2.25,0,0,0-1.44-2.81l-20.92-6.89a2.24,2.24,0,0,0-2.85,1.46Z"/><rect class="cls-4" x="2684.86" y="1383.6" width="22.15" height="6.12" transform="translate(5391.86 2773.33) rotate(180)"/><rect class="cls-4" x="2684.86" y="1391.8" width="22.15" height="2.57" transform="translate(5391.86 2786.18) rotate(180)"/><rect class="cls-4" x="2605.47" y="1495.22" width="22.15" height="6.12" transform="translate(5233.09 2996.56) rotate(180)"/><rect class="cls-4" x="2605.47" y="1503.42" width="22.15" height="2.57" transform="translate(5233.09 3009.41) rotate(180)"/><rect class="cls-4" x="2514.57" y="1378.46" width="19.09" height="78.57" transform="translate(5048.23 2835.5) rotate(180)"/><rect class="cls-4" x="2460.72" y="1363.04" width="21.42" height="2.57" transform="translate(4942.86 2728.66) rotate(180)"/><rect class="cls-4" x="2460.72" y="1367.82" width="21.42" height="2.57" transform="translate(4942.86 2738.2) rotate(180)"/><rect class="cls-4" x="2460.72" y="1372.59" width="21.42" height="2.57" transform="translate(4942.86 2747.75) rotate(180)"/><rect class="cls-5" x="2631.39" y="1397.92" width="23.22" height="24.6" transform="translate(5286.01 2820.45) rotate(180)"/><rect class="cls-5" x="2631.39" y="1425.14" width="23.22" height="3.3" transform="translate(5286.01 2853.58) rotate(180)"/><rect class="cls-2" x="2658.86" y="1495.22" width="21.48" height="11.93" transform="translate(5339.2 3002.37) rotate(180)"/><rect class="cls-2" x="2574.66" y="1387.52" width="22.76" height="4.59" transform="translate(4633.56 3493.83) rotate(-162.48)"/><rect class="cls-2" x="2486.3" y="1378.46" width="23.31" height="3.49" transform="translate(4995.91 2760.42) rotate(180)"/><rect class="cls-2" x="2486.17" y="1373.69" width="23.31" height="3.49" transform="translate(4995.65 2750.87) rotate(180)"/><path class="cls-2" d="M2498,1383.24h0a11.66,11.66,0,0,1,11.66,11.66v9.55a0,0,0,0,1,0,0H2486.3a0,0,0,0,1,0,0v-9.55a11.66,11.66,0,0,1,11.66-11.66Z" transform="translate(4995.91 2787.68) rotate(-180)"/><rect class="cls-7" x="2720.2" y="849.13" width="65.93" height="899.11"/><rect class="cls-6" x="2422.03" y="1060.32" width="293.1" height="24.51"/><rect class="cls-6" x="2422.03" y="1284.83" width="293.1" height="25.14"/><rect class="cls-6" x="2422.03" y="1510.3" width="293.1" height="24.82"/><path class="cls-6" d="M1914.14,767.35v979.39h471.94V767.35Zm460,966.84h-448V778.86h448Z"/><rect class="cls-7" x="2386.08" y="767.35" width="71.9" height="979.74"/><rect class="cls-6" x="1919.67" y="997.64" width="460.88" height="26.73"/><rect class="cls-6" x="1919.67" y="1243.16" width="460.88" height="26.73"/><rect class="cls-6" x="1919.67" y="1488.67" width="460.88" height="26.73"/><polygon class="cls-6" points="2457.98 849.13 2457.98 859.68 2709.21 859.68 2709.21 1735.74 2457.98 1735.74 2457.98 1747.52 2720.2 1747.52 2720.2 849.13 2457.98 849.13"/><path class="cls-8" d="M1364.36,1556.35a8.46,8.46,0,0,0,4.83,7.8l0,0c5.62,3.09,15.49,3.4,26.22,2.93,1.38,0,2.61-.09,3.72-.09h1.52c10.63.26,9.5,3.44,29.7,5.17,23,2,31.49-5.08,32.85-8.29,1.14-2.72-8.74-5.8-19.77-9.33l-1.61-.51-4.41-1.43c-13.14-4.37-26.08-9.55-29.3-22.85-3.43-14.11,6.86-53.47,6.86-53.47l-36.47-3.94s-3.52,41.15-5.81,54c-1.24,6.84-4.34,12.28-6.16,18.15q-.19.62-.36,1.23A40,40,0,0,0,1364.36,1556.35Z"/><path class="cls-9" d="M1364.36,1556.35a8.46,8.46,0,0,0,4.83,7.8l0,0c6,2.76,15.69,3.17,26.21,2.87,1.37,0,2.61,0,3.73,0h1.52c10.63.26,9.5,3.44,29.7,5.17,23,2,31.49-5.08,32.85-8.29,1.14-2.72-8.74-5.8-19.77-9.33a68.18,68.18,0,0,1-35.31,3c-15.36-2.89-30.61-10.53-41.59-13.08q-.19.62-.36,1.23A40,40,0,0,0,1364.36,1556.35Z"/><path class="cls-8" d="M1601,1509.79c2,10.13,16.47,8.44,32.6,4.5s12.3.74,35.26-1.8,29.91-11.1,30.61-14.51c.63-3-10.72-4.1-22.89-5.5-1.53-.17-3.06-.36-4.6-.55-13.74-1.73-23.8-10.59-36.28-17.87-11.82-6.9-29.46-35-29.46-35l-31.48,2.49s16.52,25.09,22.91,36c3.76,6.41,3.56,14.9,3.09,21.45A40.92,40.92,0,0,0,1601,1509.79Z"/><path class="cls-9" d="M1633.63,1514.29c16.13-3.94,12.3.74,35.26-1.8s29.91-11.1,30.61-14.51c.63-3-10.72-4.1-22.89-5.5l-.11.23a64.76,64.76,0,0,1-32.88,10.22c-15.57.38-32.07-4.08-42.83-3.91a40.92,40.92,0,0,0,.24,10.77C1603.06,1519.92,1617.5,1518.23,1633.63,1514.29Z"/><path class="cls-10" d="M1531,1047.34s7.51-18.38,15.76-19.13,34.51-4.87,36.38-1.12,0,17.25-5.62,22.13S1537,1062,1537,1062Z"/><path class="cls-11" d="M1480.37,1308.46l-67.86,182.62a62.12,62.12,0,0,1-20.42-1.87c-9.19-2.65-19.73-9.61-19.73-9.61s16.83-175.35,47.69-211.82S1480.37,1308.46,1480.37,1308.46Z"/><path class="cls-7" d="M1212,1234.58s195-65.93,238.47-51.9,174,273.8,174,273.8-3,3.92-11,6.94c-7.48,2.8-25.59,2.62-25.59,2.62s-117.84-101-131.86-130.46-19.64-57.51-33.67-54.7-181,68.73-218.83,29.45-28-90.31-28-90.31Z"/><path class="cls-3" d="M1331.13,927.87c3.11-6.43,6.6-17.85,8.3-38.2-.26,2-3.77,27.69-13.64,42.22-40.55,26.63-118.28,115.52-116.74,132.37,0,0-27.38-46.44-27.85-46.71,0,0-50.5-64.22,9.35-101,30.42-18.69,30.27-42.69,29-63.53s8.3-110.57,69.23-87.09c0,0,9.78-4.35,14.16-3.7,0,0-3.58.69-5.39,2.57,7.06-.42,17.16.1,25.59,4.89C1345.48,782.38,1365.47,896.27,1331.13,927.87Z"/><path class="cls-10" d="M1323.39,933.22c.2.09-19.58,10.36-34.46,6.29-14-3.81-23.14-22-23-22,5.93-1.18,7.64-9.33,7.51-44.33l2.68.53,45.06,8.92s-1,14.18-1.06,27.54C1320.14,921.38,1320.82,932,1323.39,933.22Z"/><path class="cls-12" d="M1321.23,882.63s-1,14.18-1.06,27.54c-25.21-.71-38.54-23.71-44-36.46Z"/><path class="cls-3" d="M1271.52,868.81s-13.22-20.88-16.39-38.73c-2.26-12.75,4.23-60,51.7-53.18A64.37,64.37,0,0,1,1333.58,787c10.31,7,25.18,22,8.55,63.21l-4.32,13.93Z"/><path class="cls-10" d="M1329.65,895.28s-59.66,1-59.7-36.17-7.77-62.06,30.32-64.26,45.5,12,48.53,24.37S1345.16,894.07,1329.65,895.28Z"/><path class="cls-3" d="M1273.32,801.77s40.74-27.85,53.63-8.59c3.91-3.35,10.87-5.78,20.08,5.38,13.82,16.76,1.52,46.39,1.52,46.39-5.68.67-7-18.81-10-28.28-2.24-7.13-9.73-14.42-13.27-17.57-5.21,11.73-19.52,39.81-39.25,44.88-25.07,6.45-35.94-.27-35.94-.27S1269.33,828.44,1273.32,801.77Z"/><path class="cls-13" d="M1190.55,1093.7c-5.88-24.67,14.13-72.54,35-112.18,19-35.92,38.63-65.06,40.4-64,50,29.67,54.51,5,54.51,5s45.42,6,58.28,28.17c17.79,30.61,37.15,122.47,56.19,121.11,8.73-.63,96.64-33.67,96.64-33.67s14.65,13.72,11.84,30.56c0,0-43.4,29.06-80.11,47.61-19.42,9.81-37,16.67-45.21,14.73-16.72-3.94-42.84-42.7-56.95-65.52a1.4,1.4,0,0,1-.1-.16c-18,102,6.48,125.19-5.92,135.94-13.09,11.36-31.79-5.4-72.94,12.43-27,11.71-64.45,28.64-89.66,31.58-13.23,1.56-23.09-.75-26.31-9.68C1156.89,1209.66,1201.78,1140.74,1190.55,1093.7Z"/><path class="cls-5" d="M1316.38,872.76s1.12,4.72,12.86,4c0,0,9.86-.61,9.56-5.8C1338.8,871,1329.24,867.26,1316.38,872.76Z"/><path class="cls-14" d="M1166.24,1235.61c3.22,8.93,13.08,11.24,26.31,9.68,17.45-7.6,92.84-36.81,92-56.6-1.25-29.3-14.49-30.23-5.14-66.4,7.51-29-43.54-88.74-54.65-100.48-20.89,39.64-40.08,47.22-34.2,71.89C1201.78,1140.74,1156.89,1209.66,1166.24,1235.61Z"/><path class="cls-14" d="M1361.17,1065.5c14.11,22.82,40.23,61.58,56.95,65.52,8.25,1.94,25.79-4.92,45.21-14.73-14.17,3.66-27.93,3.55-41.31,2.26-14.49-1.4-18.7-19.17-41.62-45.82C1365.54,1055.44,1361.9,1059.79,1361.17,1065.5Z"/><path class="cls-10" d="M1291.32,1121.59s12.63-9.82,24.55-7.48,17.77,10.52,17.31,14.26-6.78,14.26-15.9,15.2-35.07-5.61-35.07-5.61Z"/><path class="cls-13" d="M1266,917.51s-48.62,3-65.45,26.47c-23.69,33-64.84,168-53.62,198.81l147.92-.62s3.59-16.76-1.4-24.87-86-21.19-89.78-24.94,46.76-72.94,46.76-84.17S1266,917.51,1266,917.51Z"/><polygon class="cls-2" points="863 1749.82 1788.11 1749.82 1788.11 1446.01 863 1442.97 863 1749.82"/><rect class="cls-15" x="863" y="1199.99" width="925.12" height="79.45"/><rect class="cls-2" x="818" y="1142.72" width="1016.86" height="57.27" rx="25.58"/><polygon class="cls-4" points="875.28 1442.97 1775.83 1446.01 1775.83 1279.44 875.28 1279.44 875.28 1442.97"/><polygon class="cls-3" points="1019.97 1004.97 1049.62 1142.72 934.07 1142.72 908.69 1007.48 911.49 1004.97 1019.97 1004.97"/><polygon class="cls-16" points="1023.25 1004.97 1052.9 1142.72 937.35 1142.72 911.5 1004.97 1023.25 1004.97"/><polygon class="cls-5" points="1019.28 1009.35 1046.06 1133.78 941.69 1133.78 918.34 1009.35 1019.28 1009.35"/><path class="cls-16" d="M932,1019.34h79.44a2.67,2.67,0,0,1,0,5.33H932a2.67,2.67,0,0,1,0-5.33Z"/><path class="cls-16" d="M936.08,1031.89h79.44a2.66,2.66,0,1,1,0,5.32H936.08a2.66,2.66,0,0,1,0-5.32Z"/><path class="cls-16" d="M938.61,1043.92h79.45a2.67,2.67,0,0,1,0,5.33H938.61a2.67,2.67,0,0,1,0-5.33Z"/><path class="cls-16" d="M942.29,1068.74h79.44a2.67,2.67,0,0,1,0,5.33H942.29a2.67,2.67,0,0,1,0-5.33Z"/><path class="cls-16" d="M946.34,1081.29h79.45a2.66,2.66,0,0,1,0,5.32H946.34a2.66,2.66,0,0,1,0-5.32Z"/><path class="cls-16" d="M948.88,1093.32h79.44a2.67,2.67,0,0,1,0,5.33H948.88a2.67,2.67,0,0,1,0-5.33Z"/><rect class="cls-3" x="1077.8" y="1080.94" width="3.29" height="59.55" transform="translate(-274.81 359.13) rotate(-16.79)"/><path class="cls-6" d="M1087.43,1133.25a11.4,11.4,0,0,1,11.52,9.47h-23A11.4,11.4,0,0,1,1087.43,1133.25Z"/><path class="cls-6" d="M1072.33,1141.19a61.15,61.15,0,0,0,9.14-.79l-.13-.75c-4.4.76-16.12,1.9-17.44-1.79-.58-1.64,0-4.39.72-8.21,1.37-6.94,3.45-17.43,1-32.07-1.91-11.45-.49-14.92,1-15.81s3.74.77,3.76.79l.48-.6c-.1-.08-2.59-2-4.63-.85-2.52,1.47-3,7.06-1.4,16.6,2.42,14.5.36,24.91-1,31.79-.77,3.94-1.34,6.78-.68,8.61C1064.05,1140.55,1068.2,1141.19,1072.33,1141.19Z"/><path class="cls-2" d="M1006.27,1372.92l15.08,4.78q-3.47,12.61-11.53,18.74t-20.48,6.13q-15.35,0-25.23-10.49t-9.88-28.67q0-19.25,9.93-29.89t26.13-10.64q14.13,0,23,8.35,5.25,4.95,7.88,14.2l-15.4,3.68a15.91,15.91,0,0,0-16.24-12.93,17.52,17.52,0,0,0-13.9,6.15q-5.34,6.15-5.34,19.92,0,14.61,5.26,20.82a17.07,17.07,0,0,0,13.66,6.2,15.6,15.6,0,0,0,10.67-3.94Q1004.32,1381.39,1006.27,1372.92Z"/><path class="cls-2" d="M1034.23,1401.25v-77.06h15.56v77.06Z"/><path class="cls-2" d="M1082,1401.25v-64H1059.1v-13h61.24v13h-22.82v64Z"/><path class="cls-2" d="M1150.61,1401.25v-32.43l-28.22-44.63h18.24l18.13,30.49,17.77-30.49h17.92l-28.33,44.73v32.33Z"/><path class="cls-2" d="M1230.57,1401.25v-76.43h15.56v63.45h38.69v13Z"/><path class="cls-2" d="M1295.43,1401.25v-77.06H1311v77.06Z"/><path class="cls-2" d="M1325.87,1324.19h30.8a90,90,0,0,1,13.64.76,19.41,19.41,0,0,1,14,9.62,17.43,17.43,0,0,1,2.37,9,18.27,18.27,0,0,1-10.83,16.71,20.33,20.33,0,0,1,10.83,7,18.55,18.55,0,0,1,3.78,11.61,22.89,22.89,0,0,1-2.44,10.23,20.53,20.53,0,0,1-6.68,7.93,22.1,22.1,0,0,1-10.43,3.66q-3.9.42-18.77.52h-26.23Zm15.56,12.83v17.82h10.2q9.09,0,11.3-.27a10.22,10.22,0,0,0,6.28-2.76,8.1,8.1,0,0,0,2.29-6,8.47,8.47,0,0,0-2-5.81,9,9,0,0,0-5.87-2.71q-2.31-.27-13.29-.26Zm0,30.64v20.61h14.4a71.22,71.22,0,0,0,10.67-.47,9.61,9.61,0,0,0,5.65-3.08,9.44,9.44,0,0,0,2.19-6.54,10,10,0,0,0-1.69-5.89,9.47,9.47,0,0,0-4.86-3.52q-3.18-1.11-13.8-1.11Z"/><path class="cls-2" d="M1403.62,1401.25v-77.06h32.74q12.36,0,18,2.08a17.67,17.67,0,0,1,9,7.38,22.24,22.24,0,0,1,3.36,12.15q0,8.67-5.1,14.32t-15.24,7.12a36.54,36.54,0,0,1,8.33,6.47q3.28,3.52,8.86,12.51l9.41,15h-18.61L1443,1384.49q-6-9-8.2-11.33a11.94,11.94,0,0,0-4.68-3.21,25.59,25.59,0,0,0-7.83-.87h-3.15v32.17Zm15.56-44.47h11.51q11.19,0,14-.94a8.36,8.36,0,0,0,4.36-3.26,10,10,0,0,0,1.58-5.79,9.22,9.22,0,0,0-2.08-6.28,9.51,9.51,0,0,0-5.86-3q-1.89-.26-11.35-.26h-12.14Z"/><path class="cls-2" d="M1550.8,1401.25h-16.92l-6.73-17.5h-30.81l-6.36,17.5h-16.5l30-77.06H1520Zm-28.65-30.49-10.62-28.59-10.4,28.59Z"/><path class="cls-2" d="M1559.11,1401.25v-77.06h32.75q12.35,0,18,2.08a17.67,17.67,0,0,1,9,7.38,22.24,22.24,0,0,1,3.36,12.15q0,8.67-5.09,14.32t-15.25,7.12a36.32,36.32,0,0,1,8.33,6.47q3.29,3.52,8.86,12.51l9.41,15h-18.61l-11.25-16.76q-6-9-8.2-11.33a11.94,11.94,0,0,0-4.68-3.21,25.54,25.54,0,0,0-7.83-.87h-3.15v32.17Zm15.56-44.47h11.51q11.19,0,14-.94a8.36,8.36,0,0,0,4.36-3.26,10,10,0,0,0,1.58-5.79,9.27,9.27,0,0,0-2.07-6.28,9.57,9.57,0,0,0-5.87-3q-1.89-.26-11.35-.26h-12.14Z"/><path class="cls-2" d="M1653,1401.25v-32.43l-28.22-44.63h18.24l18.13,30.49,17.77-30.49h17.92l-28.33,44.73v32.33Z"/><rect class="cls-2" x="1926.12" y="824.4" width="33.22" height="173.24"/><rect class="cls-2" x="2141.58" y="824.4" width="33.22" height="173.24"/><rect class="cls-4" x="1959.34" y="801.05" width="33.22" height="196.59"/><rect class="cls-3" x="1992.56" y="845.29" width="33.22" height="152.35"/><rect class="cls-2" x="2307.67" y="845.29" width="33.22" height="152.35"/><rect class="cls-3" x="2340.88" y="824.4" width="33.22" height="173.24"/><rect class="cls-4" x="2174.8" y="812.42" width="33.22" height="185.23"/><rect class="cls-4" x="2274.45" y="812.42" width="33.22" height="185.23"/><rect class="cls-2" x="2208.02" y="801.05" width="33.22" height="196.59"/><rect class="cls-3" x="2241.24" y="845.29" width="33.22" height="152.35"/><rect class="cls-2" x="2025.78" y="824.4" width="33.22" height="173.24"/><polygon class="cls-4" points="2142.21 987.22 2110.58 997.64 2058.99 832.7 2090.62 822.27 2142.21 987.22"/><rect class="cls-4" x="1928.83" y="838.23" width="27.81" height="7.68"/><rect class="cls-4" x="1928.83" y="848.52" width="27.81" height="3.23"/><rect class="cls-4" x="2028.48" y="978.34" width="27.81" height="7.68"/><rect class="cls-4" x="2028.48" y="988.63" width="27.81" height="3.23"/><rect class="cls-4" x="1694.22" y="1039.49" width="33.22" height="173.24" transform="translate(2836.94 -584.72) rotate(90)"/><rect class="cls-3" x="1625.77" y="1122.27" width="27.81" height="7.68" transform="translate(2765.79 -513.56) rotate(90)"/><rect class="cls-3" x="1617.71" y="1124.5" width="27.81" height="3.23" transform="translate(2757.72 -505.5) rotate(90)"/><rect class="cls-2" x="1711.73" y="1006.27" width="33.22" height="173.24" transform="translate(2821.24 -635.45) rotate(90)"/><path class="cls-4" d="M1793.57,1103v-20.13a3.84,3.84,0,0,1,3.84-3.84h0a3.84,3.84,0,0,1,3.84,3.84V1103a3.84,3.84,0,0,1-3.84,3.84h0A3.84,3.84,0,0,1,1793.57,1103Z"/><rect class="cls-4" x="1775.44" y="1091.28" width="27.81" height="3.23" transform="translate(2882.24 -696.45) rotate(90)"/><rect class="cls-4" x="1791.65" y="1091.28" width="27.81" height="3.23" transform="translate(2898.45 -712.66) rotate(90)"/><rect class="cls-3" x="1679.47" y="973.05" width="33.22" height="173.24" transform="translate(2755.76 -636.41) rotate(90)"/><path class="cls-4" d="M1648.94,1026h0a13.9,13.9,0,0,1,13.9,13.9v53.47a0,0,0,0,1,0,0H1635a0,0,0,0,1,0,0v-53.47A13.9,13.9,0,0,1,1648.94,1026Z" transform="translate(2708.61 -589.26) rotate(90)"/><rect class="cls-4" x="2146.43" y="831.78" width="23.97" height="98.63"/><path class="cls-4" d="M2326.32,871.72h-3.38a7.22,7.22,0,0,1-7.22-7.22h0a7.22,7.22,0,0,1,7.22-7.22h3.38a7.22,7.22,0,0,1,7.22,7.22h0A7.22,7.22,0,0,1,2326.32,871.72Z"/><rect class="cls-4" x="2211.1" y="812.42" width="26.88" height="3.23"/><rect class="cls-4" x="2211.1" y="818.41" width="26.88" height="3.23"/><rect class="cls-4" x="2211.1" y="824.4" width="26.88" height="3.23"/><rect class="cls-5" x="1994.59" y="856.2" width="29.15" height="30.88"/><rect class="cls-5" x="1994.59" y="890.37" width="29.15" height="4.15"/><rect class="cls-5" x="2343.45" y="988.48" width="27.42" height="4.84"/><rect class="cls-5" x="2343.45" y="980.41" width="27.42" height="4.84"/><rect class="cls-5" x="2343.45" y="950.22" width="27.42" height="26.27"/><path class="cls-2" d="M2258.42,936.23h-1.15a13.14,13.14,0,0,1-13.14-13.14h0A13.13,13.13,0,0,1,2257.27,910h1.15a13.14,13.14,0,0,1,13.14,13.13h0A13.14,13.14,0,0,1,2258.42,936.23Z"/><rect class="cls-2" x="1962.3" y="978.34" width="26.96" height="14.98"/><rect class="cls-2" x="2066.38" y="843.14" width="28.57" height="5.76" transform="translate(-158.18 665.79) rotate(-17.52)"/><rect class="cls-2" x="2176.61" y="831.78" width="29.27" height="4.38"/><rect class="cls-2" x="2176.78" y="825.78" width="29.27" height="4.38"/><path class="cls-2" d="M2191.25,864.38h0a14.63,14.63,0,0,1-14.64-14.63v-12h29.27v12A14.63,14.63,0,0,1,2191.25,864.38Z"/><rect class="cls-3" x="2058.67" y="1090.77" width="33.22" height="152.35"/><rect class="cls-3" x="2224.55" y="1090.77" width="33.22" height="152.35"/><rect class="cls-2" x="2091.89" y="1090.77" width="33.22" height="152.35"/><rect class="cls-3" x="2191.33" y="1069.88" width="33.22" height="173.24"/><rect class="cls-4" x="1959.11" y="1057.97" width="33.22" height="185.23"/><rect class="cls-4" x="2025.53" y="1057.97" width="33.22" height="185.23"/><rect class="cls-2" x="1992.31" y="1046.56" width="33.22" height="196.59"/><rect class="cls-2" x="1925.89" y="1069.88" width="33.22" height="173.24"/><rect class="cls-2" x="2257.77" y="1090.77" width="33.22" height="152.35"/><rect class="cls-4" x="2124.9" y="1057.89" width="33.22" height="185.23"/><rect class="cls-2" x="2158.12" y="1046.53" width="33.22" height="196.59"/><polygon class="cls-4" points="2370.68 1232.69 2339.05 1243.12 2287.46 1078.17 2319.09 1067.74 2370.68 1232.69"/><rect class="cls-4" x="2228.75" y="1099.63" width="25.12" height="29.04"/><rect class="cls-4" x="2161.35" y="1057.11" width="25.35" height="6.91"/><rect class="cls-4" x="2161.35" y="1068.75" width="25.35" height="6.91"/><rect class="cls-5" x="2193.95" y="1086.61" width="27.77" height="3.46"/><path class="cls-3" d="M1942.43,1108.31h0a12.28,12.28,0,0,1-12.28-12.27V1077.2h24.55V1096A12.28,12.28,0,0,1,1942.43,1108.31Z"/><rect class="cls-3" x="2027.52" y="1063.37" width="28.11" height="3.8"/><rect class="cls-3" x="1994.79" y="1233.97" width="27.96" height="5.99"/><rect class="cls-3" x="1994.79" y="1225.99" width="27.96" height="5.99"/><path class="cls-3" d="M2008.77,1220.61h0a12.09,12.09,0,0,1-12.09-12.1h0a12.09,12.09,0,0,1,12.09-12.1h0a12.1,12.1,0,0,1,12.1,12.1h0A12.1,12.1,0,0,1,2008.77,1220.61Z"/><rect class="cls-2" x="1963.51" y="1115.71" width="24.43" height="58.3"/><rect class="cls-5" x="2061.93" y="1103.24" width="26.12" height="5.99"/><rect class="cls-5" x="2062.22" y="1133.5" width="26.12" height="5.99"/><path class="cls-5" d="M2282.93,1115.83h-18.29a4.53,4.53,0,0,1-4.53-4.53h0a4.53,4.53,0,0,1,4.53-4.53h18.29a4.53,4.53,0,0,1,4.53,4.53h0A4.53,4.53,0,0,1,2282.93,1115.83Z"/><rect class="cls-2" x="2478.69" y="1172.8" width="24.55" height="112.6"/><rect class="cls-3" x="2601.28" y="1138.4" width="24.55" height="147"/><rect class="cls-3" x="2503.24" y="1172.8" width="24.55" height="112.6"/><rect class="cls-4" x="2576.74" y="1157.36" width="24.55" height="128.04"/><rect class="cls-4" x="2457.98" y="1148.56" width="20.76" height="136.9"/><rect class="cls-2" x="2625.84" y="1172.8" width="24.55" height="112.6"/><rect class="cls-4" x="2527.64" y="1198.51" width="24.55" height="86.89"/><rect class="cls-2" x="2552.19" y="1140.1" width="24.55" height="145.3"/><polygon class="cls-4" points="2709.28 1277.69 2685.91 1285.4 2647.78 1163.49 2671.16 1155.79 2709.28 1277.69"/><rect class="cls-2" x="2604.39" y="1260.52" width="18.56" height="21.46"/><rect class="cls-4" x="2554.57" y="1147.92" width="18.73" height="5.11"/><rect class="cls-4" x="2554.57" y="1156.53" width="18.73" height="5.11"/><rect class="cls-5" x="2578.67" y="1169.72" width="20.52" height="2.55"/><rect class="cls-3" x="2457.94" y="1152.55" width="18.49" height="2.81"/><rect class="cls-5" x="2481.09" y="1182.02" width="19.3" height="4.43"/><rect class="cls-5" x="2481.31" y="1204.38" width="19.3" height="4.43"/><path class="cls-5" d="M2644.43,1191.33h-13.51a3.35,3.35,0,0,1-3.35-3.35h0a3.35,3.35,0,0,1,3.35-3.35h13.51a3.35,3.35,0,0,1,3.35,3.35h0A3.35,3.35,0,0,1,2644.43,1191.33Z"/><rect class="cls-3" x="2580.9" y="1617.23" width="25.96" height="119.08" transform="translate(5187.75 3353.53) rotate(180)"/><rect class="cls-2" x="2457.98" y="1617.23" width="19.23" height="119.08" transform="translate(4935.19 3353.53) rotate(180)"/><rect class="cls-2" x="2554.93" y="1617.23" width="25.96" height="119.08" transform="translate(5135.83 3353.53) rotate(180)"/><rect class="cls-3" x="2477.2" y="1600.9" width="25.96" height="135.41" transform="translate(4980.37 3337.2) rotate(180)"/><rect class="cls-4" x="2658.71" y="1591.59" width="25.96" height="144.78" transform="translate(5343.39 3327.96) rotate(180)"/><rect class="cls-4" x="2606.8" y="1591.59" width="25.96" height="144.78" transform="translate(5239.56 3327.96) rotate(180)"/><rect class="cls-2" x="2632.76" y="1582.67" width="25.96" height="153.66" transform="translate(5291.49 3319.01) rotate(180)"/><rect class="cls-2" x="2684.68" y="1600.9" width="25.96" height="135.41" transform="translate(5395.32 3337.2) rotate(180)"/><rect class="cls-4" x="2529.13" y="1591.53" width="25.96" height="144.78" transform="translate(5084.23 3327.84) rotate(180)"/><rect class="cls-2" x="2503.17" y="1582.64" width="25.96" height="153.66" transform="translate(5032.3 3318.95) rotate(180)"/><rect class="cls-4" x="2457.98" y="1624.15" width="15.94" height="22.69" transform="translate(4931.91 3270.99) rotate(180)"/><rect class="cls-4" x="2506.8" y="1590.92" width="19.81" height="5.4" transform="translate(5033.4 3187.24) rotate(180)"/><rect class="cls-4" x="2506.8" y="1600.01" width="19.81" height="5.4" transform="translate(5033.4 3205.43) rotate(180)"/><rect class="cls-5" x="2479.42" y="1613.97" width="21.7" height="2.7" transform="translate(4980.54 3230.65) rotate(180)"/><path class="cls-3" d="M2697.72,1630.93h0a9.59,9.59,0,0,0,9.59-9.59v-14.72h-19.18v14.72A9.59,9.59,0,0,0,2697.72,1630.93Z"/><rect class="cls-3" x="2609.24" y="1595.81" width="21.97" height="2.97" transform="translate(5240.45 3194.59) rotate(180)"/><rect class="cls-3" x="2634.93" y="1729.16" width="21.85" height="4.68" transform="translate(5291.72 3463) rotate(180)"/><rect class="cls-3" x="2634.93" y="1722.91" width="21.85" height="4.68" transform="translate(5291.72 3450.51) rotate(180)"/><path class="cls-3" d="M2645.86,1718.71h0a9.46,9.46,0,0,0,9.46-9.46h0a9.46,9.46,0,0,0-9.46-9.45h0a9.45,9.45,0,0,0-9.45,9.45h0A9.45,9.45,0,0,0,2645.86,1718.71Z"/><rect class="cls-2" x="2662.15" y="1636.72" width="19.09" height="45.57" transform="translate(5343.39 3319.01) rotate(180)"/><rect class="cls-5" x="2583.9" y="1626.97" width="20.41" height="4.68" transform="translate(5188.22 3258.62) rotate(180)"/><rect class="cls-5" x="2583.67" y="1650.63" width="20.41" height="4.68" transform="translate(5187.75 3305.94) rotate(180)"/><rect class="cls-2" x="2054.15" y="1592.27" width="32.03" height="141.84"/><rect class="cls-3" x="2310.19" y="1592.27" width="32.03" height="141.84"/><rect class="cls-3" x="2214.1" y="1587.21" width="32.03" height="146.9"/><rect class="cls-4" x="2086.18" y="1587.21" width="32.03" height="146.9"/><rect class="cls-2" x="2182.07" y="1607.01" width="32.03" height="127.11"/><rect class="cls-3" x="1958.15" y="1542.23" width="32.03" height="191.96"/><rect class="cls-2" x="2278.16" y="1542.23" width="32.03" height="191.96"/><rect class="cls-3" x="2022.2" y="1555.58" width="32.03" height="178.6"/><rect class="cls-2" x="1990.17" y="1602.64" width="32.03" height="131.51"/><rect class="cls-4" x="1926.12" y="1567.06" width="32.03" height="167.05"/><rect class="cls-4" x="2342.07" y="1567.06" width="32.03" height="167.05"/><rect class="cls-4" x="2246.13" y="1561.42" width="32.03" height="172.69"/><rect class="cls-3" x="2118.01" y="1555.51" width="32.03" height="178.6"/><rect class="cls-4" x="2150.04" y="1544.55" width="32.03" height="189.57"/><rect class="cls-4" x="2218.15" y="1595.75" width="24.22" height="28"/><rect class="cls-4" x="2153.16" y="1554.75" width="24.44" height="6.67"/><rect class="cls-4" x="2153.16" y="1565.97" width="24.44" height="6.67"/><path class="cls-3" d="M1942.06,1604.12h0a11.83,11.83,0,0,1-11.83-11.83v-18.17h23.66v18.17A11.83,11.83,0,0,1,1942.06,1604.12Z"/><rect class="cls-3" x="2024.11" y="1560.79" width="27.11" height="3.67"/><rect class="cls-3" x="1992.56" y="1725.29" width="26.96" height="5.78"/><rect class="cls-3" x="1992.56" y="1717.59" width="26.96" height="5.78"/><path class="cls-3" d="M2006,1712.41h0a11.68,11.68,0,0,1-11.67-11.67h0a11.67,11.67,0,0,1,11.67-11.66h0a11.66,11.66,0,0,1,11.66,11.66h0A11.67,11.67,0,0,1,2006,1712.41Z"/><rect class="cls-2" x="1962.39" y="1611.26" width="23.55" height="56.22"/><rect class="cls-5" x="2057.29" y="1599.23" width="25.18" height="5.78"/><rect class="cls-5" x="2057.58" y="1628.41" width="25.18" height="5.78"/><path class="cls-5" d="M2270.39,1577.6h-17.63a4.37,4.37,0,0,1-4.37-4.37h0a4.37,4.37,0,0,1,4.37-4.37h17.63a4.37,4.37,0,0,1,4.37,4.37h0A4.36,4.36,0,0,1,2270.39,1577.6Z"/><rect class="cls-5" x="2121.7" y="1709.3" width="24.66" height="21.77"/><rect class="cls-2" x="2184.83" y="1723.37" width="26.12" height="4.81"/><rect class="cls-2" x="2346.76" y="1639.33" width="23.04" height="7.51"/><rect class="cls-2" x="2346.76" y="1651.55" width="23.04" height="7.51"/><rect class="cls-2" x="2549.15" y="918.4" width="32.03" height="141.84" transform="translate(5130.34 1978.64) rotate(180)"/><rect class="cls-4" x="2517.12" y="913.34" width="32.03" height="146.9" transform="translate(5066.28 1973.58) rotate(180)"/><rect class="cls-3" x="2645.16" y="868.36" width="32.03" height="191.96" transform="translate(5322.34 1928.67) rotate(180)"/><rect class="cls-3" x="2581.11" y="881.71" width="32.03" height="178.6" transform="translate(5194.25 1942.03) rotate(180)"/><rect class="cls-2" x="2613.14" y="928.77" width="32.03" height="131.51" transform="translate(5258.31 1989.04) rotate(180)"/><rect class="cls-4" x="2677.19" y="893.19" width="32.03" height="167.05" transform="translate(5386.41 1953.43) rotate(180)"/><rect class="cls-3" x="2485.29" y="881.64" width="32.03" height="178.6" transform="translate(5002.62 1941.88) rotate(180)"/><rect class="cls-4" x="2457.98" y="870.67" width="27.31" height="189.57" transform="translate(4943.28 1930.92) rotate(180)"/><rect class="cls-2" x="2457.98" y="880.88" width="24.2" height="6.67" transform="translate(4940.16 1768.43) rotate(180)"/><rect class="cls-2" x="2457.98" y="892.1" width="24.2" height="6.67" transform="translate(4940.16 1790.87) rotate(180)"/><path class="cls-3" d="M2693.28,930.25h0a11.84,11.84,0,0,0,11.83-11.84V900.25h-23.67v18.16A11.84,11.84,0,0,0,2693.28,930.25Z"/><rect class="cls-3" x="2584.12" y="886.92" width="27.11" height="3.67" transform="translate(5195.35 1777.5) rotate(180)"/><rect class="cls-3" x="2615.82" y="1051.42" width="26.96" height="5.78" transform="translate(5258.6 2108.62) rotate(180)"/><rect class="cls-3" x="2615.82" y="1043.72" width="26.96" height="5.78" transform="translate(5258.6 2093.21) rotate(180)"/><path class="cls-3" d="M2629.3,1038.53h0a11.67,11.67,0,0,0,11.67-11.66h0a11.68,11.68,0,0,0-11.67-11.67h0a11.68,11.68,0,0,0-11.67,11.67h0A11.67,11.67,0,0,0,2629.3,1038.53Z"/><rect class="cls-2" x="2649.39" y="937.39" width="23.55" height="56.22" transform="translate(5322.34 1930.99) rotate(180)"/><rect class="cls-5" x="2552.86" y="925.36" width="25.18" height="5.78" transform="translate(5130.91 1856.49) rotate(180)"/><rect class="cls-5" x="2552.58" y="954.54" width="25.18" height="5.78" transform="translate(5130.34 1914.86) rotate(180)"/><rect class="cls-5" x="2488.98" y="1035.43" width="24.66" height="21.77" transform="translate(5002.62 2092.63) rotate(180)"/><path class="cls-17" d="M2855.51,1752.89H296.89a3.08,3.08,0,0,1-3.08-3.07h0a3.09,3.09,0,0,1,3.08-3.08H2855.51a3.09,3.09,0,0,1,3.08,3.08h0A3.09,3.09,0,0,1,2855.51,1752.89Z"/><path class="cls-16" d="M1981.72,635.22s21.94-25.59,1.35-41.85c0,0-15-9.1-27.29-8.36,0,0,17.37,29.13,11.75,32s-17-33.85-17-33.85-34.21-3.32-45.22,2c0,0,29.25,23.94,23.09,25.36s-37.75-22.06-37.75-22.06-31.84,5.41-30.15,24.84,12.67,25.42,17.5,24.91,33-11.29,33.64-7.34-16.36,16.87-28.26,17.47c0,0,22.46,24.76,37.38,17.62s16.19-18.48,25.49-22.72,17.24-4.24,13.4.09-20.67,8.54-26,17.95S1923.55,677,1939,674.7s40.53-13.61,41.63-26.55Z"/><path class="cls-16" d="M1876.13,613.81s86.49-3.33,105.59,21.41c0,0,4.22,12.65,17.22,24.17l2,5.52s-15-15.8-20.35-16.76C1980.62,648.15,1989,617.51,1876.13,613.81Z"/><path class="cls-16" d="M1998.94,659.39s18.57,13.73,19.86,38.26l-3.37.3s-5.93-25.36-16.65-35.28S1998.94,659.39,1998.94,659.39Z"/><path class="cls-18" d="M2058.42,603s-34.9-19.54-18.61-46.06c0,0,13-16.28,27-20.47,0,0-7.44,39.55,0,40.48s5.12-44.67,5.12-44.67,36.75-17.68,51.18-16.28c0,0-22.8,38.62-15.36,37.69s33-40,33-40,37.68-7,43.73,15.36-3.72,33.5-9.3,34.89-41.41.93-40.48,5.58,25.12,12.1,38.61,7.91c0,0-14.88,36.76-34.42,34.9s-25.59-14-37.69-14.89-20.94,2.33-14.89,5.58,26.52,1.07,36.29,9.38,17.68,13.42-.46,17.14-50.72,1.4-57.23-12.56Z"/><path class="cls-16" d="M2167.29,536s-97.71,31.63-108.87,67c0,0,.46,15.82-9.31,34v7s10.24-23.73,15.82-27C2064.93,617,2043.06,586.28,2167.29,536Z"/><path class="cls-16" d="M2049.11,637s-15.07,22.88-6.48,50.73l3.88-1s-3.76-30.68,4.12-46.11S2049.11,637,2049.11,637Z"/><path class="cls-18" d="M2002.9,576.08s46-25.76,24.53-60.71c0,0-17.17-21.47-35.57-27,0,0,9.81,52.13,0,53.36s-6.74-58.88-6.74-58.88-48.45-23.3-67.47-21.46c0,0,30,50.9,20.24,49.67s-43.54-52.74-43.54-52.74-49.68-9.2-57.65,20.24,4.9,44.16,12.26,46,54.59,1.22,53.36,7.36-33.12,15.94-50.9,10.42c0,0,19.62,48.45,45.38,46s33.73-18.4,49.68-19.63,27.6,3.07,19.62,7.36-34.95,1.41-47.83,12.36-23.31,17.69.61,22.6,66.85,1.84,75.44-16.56Z"/><path class="cls-16" d="M1859.39,487.77s128.79,41.7,143.51,88.31c0,0-.61,20.86,12.27,44.77v9.2s-13.5-31.27-20.85-35.57C1994.32,594.48,2023.14,554,1859.39,487.77Z"/><path class="cls-16" d="M2015.17,620.85s19.86,30.17,8.54,66.88l-5.11-1.37s5-40.44-5.43-60.78S2015.17,620.85,2015.17,620.85Z"/><path class="cls-4" d="M2004.45,767.35a90.1,90.1,0,0,1-90.1-90.1h180.2A90.1,90.1,0,0,1,2004.45,767.35Z"/><path class="cls-19" d="M1983.77,765c3.1.67,6.41,1.79,10.2,1.79a89.16,89.16,0,0,0,89.6-89.5h-22.38C2061.19,723.22,2028.25,759.45,1983.77,765Z"/><rect class="cls-20" x="1912.3" y="677.25" width="185.22" height="2.76" transform="translate(4009.82 1357.26) rotate(180)"/><path class="cls-4" d="M2047.7,767.35h-86.5a2.66,2.66,0,0,1-2.66-2.66h0a2.66,2.66,0,0,1,2.66-2.66h86.5a2.66,2.66,0,0,1,2.66,2.66h0A2.66,2.66,0,0,1,2047.7,767.35Z"/></svg>