<svg id="OBJECTS" xmlns="http://www.w3.org/2000/svg" viewBox="0 0 500 500"><defs><style>.cls-1{fill:#2d799e;}.cls-2{fill:#2a4f5e;}.cls-3{fill:#fec56d;}.cls-4{fill:#173d50;}.cls-5{fill:#fff;}.cls-6{fill:#d0d7de;}</style></defs><polygon class="cls-1" points="118.23 106.86 101.95 135.06 174.07 157.9 118.23 106.86"/><polygon class="cls-1" points="101.95 241.15 118.23 269.35 174.08 218.31 101.95 241.15"/><polygon class="cls-1" points="334.55 106.85 278.71 157.9 350.83 135.06 334.55 106.85"/><polygon class="cls-1" points="242.67 53.81 210.11 53.81 226.39 127.69 242.67 53.81"/><polygon class="cls-1" points="72.3 169.42 72.3 206.79 157.08 188.1 72.3 169.42"/><polygon class="cls-1" points="380.49 169.42 295.71 188.1 380.49 206.79 380.49 169.42"/><polygon class="cls-1" points="165.53 330.89 191.74 248.13 133.17 312.21 165.53 330.89"/><polygon class="cls-1" points="261.05 128.07 319.62 63.99 287.26 45.31 261.05 128.07"/><polygon class="cls-1" points="165.52 45.31 133.16 63.99 191.73 128.07 165.52 45.31"/><path class="cls-2" d="M413.53,292,241.19,186.9a15.27,15.27,0,0,0-15.61-.19h0a15.31,15.31,0,0,0-7.63,13.65l5.41,202.71a15.3,15.3,0,0,0,27.06,9.36L283.1,373,345.79,461a15.3,15.3,0,0,0,20.1,4.36l30.77-17.77a15,15,0,0,0,1.66-1.11l.81-.61a15.31,15.31,0,0,0,4.6-18.49l-45.18-98.94,49.51-8.21a15,15,0,0,0,5.15-1.84,15.3,15.3,0,0,0,.32-26.3Z"/><polygon class="cls-3" points="98.21 94.19 81.92 122.39 154.05 145.23 98.21 94.19"/><polygon class="cls-3" points="154.05 205.63 81.92 228.48 98.21 256.68 154.05 205.63"/><polygon class="cls-3" points="314.52 94.18 258.69 145.22 330.81 122.39 314.52 94.18"/><polygon class="cls-3" points="190.08 41.14 206.37 115.02 222.65 41.14 190.08 41.14"/><polygon class="cls-3" points="52.27 156.75 52.27 194.12 137.05 175.43 52.27 156.75"/><polygon class="cls-3" points="360.46 194.12 360.46 156.75 275.68 175.43 360.46 194.12"/><polygon class="cls-3" points="113.14 299.54 145.5 318.22 171.71 235.46 113.14 299.54"/><polygon class="cls-3" points="299.59 51.32 267.23 32.64 241.02 115.4 299.59 51.32"/><polygon class="cls-3" points="145.5 32.64 113.14 51.32 171.71 115.4 145.5 32.64"/><path class="cls-4" d="M345.86,452.64a15.29,15.29,0,0,1-20.1-4.37l-62.69-87.92-32.69,39.4a15.29,15.29,0,0,1-27-9.35l-5.41-202.71A15.3,15.3,0,0,1,205.54,174h0a15.32,15.32,0,0,1,15.61.19L393.5,279.37a15.29,15.29,0,0,1-.32,26.3,15,15,0,0,1-5.14,1.84l-49.52,8.21,45.19,98.94a15.28,15.28,0,0,1-4.61,18.48l-.81.62a14.88,14.88,0,0,1-1.65,1.11Z"/><polygon class="cls-5" points="218.62 389.99 263.99 335.3 338.21 439.4 353.63 430.5 213.2 187.28 218.62 389.99"/><polygon class="cls-6" points="213.2 187.28 353.63 430.5 368.99 421.63 369.8 421.01 316.32 303.9 385.54 292.43 213.2 187.28"/></svg>